<?xml version="1.0" encoding="UTF-8"?>
<!DOCTYPE svg PUBLIC "-//W3C//DTD SVG 1.1//EN" "http://www.w3.org/Graphics/SVG/1.1/DTD/svg11.dtd">
<svg version="1.1" xmlns="http://www.w3.org/2000/svg" xmlns:xlink="http://www.w3.org/1999/xlink" x="0" y="0" width="518" height="358" viewBox="0, 0, 518, 358">
  <g id="Layer_1">
    <path d="M429.966,278.938 C429.966,358.381 351.509,355.901 258.833,355.901 C166.147,355.901 87.69,358.381 87.69,278.938 C87.69,175.813 166.147,95.1 258.833,95.1 C351.509,95.1 429.966,175.813 429.966,278.938" fill="#C63431"/>
    <path d="M501.714,107.356 C479.907,142.59 438.511,156.496 409.224,138.391 C379.937,120.266 373.862,77.024 395.669,41.78 C413.716,12.571 445.229,-1.97 472.163,4.182 C477.749,5.461 451.567,58.674 456.587,61.799 C462.808,65.637 499.565,19.592 503.657,25.373 C518.784,46.887 518.882,79.612 501.714,107.356" fill="#C63431"/>
    <path d="M364.832,165.468 L414.881,118.857 C418.369,115.608 418.563,110.147 415.314,106.659 C412.066,103.171 406.605,102.977 403.117,106.225 L353.068,152.837 C349.58,156.085 349.386,161.546 352.635,165.034 C355.883,168.522 361.344,168.716 364.832,165.468" fill="#C63431"/>
    <path d="M15.933,107.356 C37.749,142.59 79.175,156.496 108.433,138.391 C137.72,120.266 143.794,77.024 121.987,41.78 C103.921,12.571 72.427,-1.97 45.493,4.182 C39.907,5.461 66.089,58.674 61.069,61.799 C54.849,65.637 18.091,19.592 13.989,25.373 C-1.108,46.887 -1.226,79.612 15.933,107.356" fill="#C63431"/>
    <path d="M164.588,152.837 L114.549,106.226 C111.062,102.977 105.601,103.171 102.352,106.658 C99.103,110.146 99.297,115.607 102.784,118.856 L152.823,165.468 C156.311,168.716 161.772,168.522 165.021,165.035 C168.27,161.547 168.076,156.086 164.588,152.837" fill="#C63431"/>
    <path d="M12.095,256.106 C9.458,255.93 6.87,254.885 4.868,252.971 C0.523,248.821 0.571,242.248 4.985,238.244 C37.583,208.772 89.614,218.616 108.97,232.756 C113.872,236.36 114.741,242.903 110.942,247.414 C107.134,251.887 99.858,255.862 94.966,252.258 C83.413,243.801 44.331,231.867 20.728,253.225 C18.345,255.383 15.19,256.35 12.095,256.106" fill="#C63431"/>
    <path d="M20.259,307.717 C18.384,307.58 16.519,307.014 14.858,305.989 C9.673,302.766 8.257,296.291 11.636,291.526 C36.792,256.311 88.628,254.201 110.708,264.319 C116.265,266.877 118.618,273.117 115.913,278.274 C113.218,283.41 106.284,288.703 100.718,286.155 C87.534,280.11 48.589,277.649 30.386,303.157 C28.071,306.389 24.165,308.01 20.259,307.717" fill="#C63431"/>
    <path d="M45.337,348.069 C44.048,347.991 42.739,347.668 41.48,347.151 C35.835,344.709 33.315,338.528 35.874,333.323 C54.673,294.807 104.595,283.86 128.081,290.637 C134.019,292.366 137.368,298.215 135.571,303.684 C133.794,309.162 127.075,318.586 121.157,316.877 C107.104,312.834 69.946,314.172 56.323,342.063 C54.351,346.125 49.888,348.41 45.337,348.069" fill="#C63431"/>
    <path d="M505.552,256.106 C508.188,255.93 510.786,254.885 512.788,252.971 C517.134,248.821 517.085,242.248 512.681,238.244 C480.083,208.772 428.042,218.616 408.677,232.756 C403.784,236.36 402.915,242.903 406.733,247.414 C410.522,251.887 417.808,255.862 422.69,252.258 C434.243,243.801 473.325,231.867 496.929,253.225 C499.312,255.383 502.466,256.35 505.552,256.106" fill="#C63431"/>
    <path d="M497.397,307.717 C499.272,307.58 501.138,307.014 502.808,305.989 C507.974,302.766 509.399,296.291 506.021,291.526 C480.864,256.311 429.038,254.201 406.958,264.319 C401.382,266.877 399.048,273.117 401.724,278.274 C404.438,283.41 411.382,288.703 416.929,286.155 C430.122,280.11 469.067,277.649 487.271,303.157 C489.565,306.389 493.491,308.01 497.397,307.717" fill="#C63431"/>
    <path d="M472.319,348.069 C473.608,347.991 474.907,347.668 476.167,347.151 C481.821,344.709 484.331,338.528 481.782,333.323 C462.983,294.807 413.042,283.86 389.575,290.637 C383.647,292.366 380.288,298.215 382.075,303.684 C383.872,309.162 390.581,318.586 396.519,316.877 C410.532,312.834 447.71,314.172 461.333,342.063 C463.306,346.125 467.769,348.41 472.319,348.069" fill="#C63431"/>
    <path d="M176.426,66.329 L191.572,127.892 C192.483,131.595 196.223,133.857 199.926,132.947 C203.628,132.035 205.891,128.295 204.98,124.593 L189.834,63.03 C188.923,59.327 185.183,57.065 181.48,57.975 C177.778,58.887 175.515,62.627 176.426,66.329" fill="#C63431"/>
    <path d="M210.522,48.401 C210.522,65.588 196.606,79.533 179.419,79.533 C162.231,79.533 148.306,65.588 148.306,48.401 C148.306,31.223 162.231,17.317 179.419,17.317 C196.606,17.317 210.522,31.223 210.522,48.401" fill="#C63431"/>
    <path d="M202.153,48.401 C202.153,60.959 191.968,71.155 179.419,71.155 C166.87,71.155 156.685,60.959 156.685,48.401 C156.685,35.862 166.87,25.676 179.419,25.676 C191.968,25.676 202.153,35.862 202.153,48.401" fill="#FFFFFE"/>
    <path d="M199.663,43.303 C199.663,52.912 191.851,60.715 182.222,60.715 C172.603,60.715 164.79,52.912 164.79,43.303 C164.79,33.655 172.603,25.852 182.222,25.852 C191.851,25.852 199.663,33.655 199.663,43.303" fill="#1A1919"/>
    <path d="M327.822,63.031 L312.685,124.594 C311.775,128.297 314.038,132.036 317.741,132.947 C321.444,133.857 325.184,131.594 326.094,127.891 L341.231,66.328 C342.141,62.625 339.877,58.886 336.175,57.975 C332.472,57.065 328.732,59.328 327.822,63.031" fill="#C63431"/>
    <path d="M307.134,48.401 C307.134,65.588 321.05,79.533 338.237,79.533 C355.435,79.533 369.351,65.588 369.351,48.401 C369.351,31.223 355.435,17.317 338.237,17.317 C321.05,17.317 307.134,31.223 307.134,48.401" fill="#C63431"/>
    <path d="M315.503,48.401 C315.503,60.959 325.688,71.155 338.237,71.155 C350.786,71.155 360.972,60.959 360.972,48.401 C360.972,35.862 350.786,25.676 338.237,25.676 C325.688,25.676 315.503,35.862 315.503,48.401" fill="#FFFFFE"/>
    <path d="M323.735,43.303 C323.735,52.912 331.548,60.715 341.157,60.715 C350.786,60.715 358.599,52.912 358.599,43.303 C358.599,33.655 350.786,25.852 341.157,25.852 C331.548,25.852 323.735,33.655 323.735,43.303" fill="#1A1919"/>
    <path d="M224.975,125.816 C224.765,126.685 224.707,127.482 224.704,128.304 C224.707,129.698 224.896,131.167 225.238,132.777 C225.843,135.582 226.937,138.792 228.593,142.124 C231.08,147.109 234.836,152.375 240.22,156.492 C242.91,158.547 246.01,160.3 249.513,161.532 C253.014,162.764 256.915,163.469 261.157,163.468 C267.088,163.467 272.476,162.623 277.253,160.968 C284.416,158.501 290.196,154.138 294.072,148.375 C297.961,142.616 299.932,135.572 300.032,127.853 C300.064,125.47 298.159,123.512 295.776,123.48 C293.393,123.448 291.435,125.354 291.403,127.737 C291.345,131.967 290.616,135.739 289.31,139.008 C288.329,141.461 287.025,143.636 285.403,145.544 C282.968,148.402 279.81,150.685 275.797,152.302 C271.788,153.913 266.911,154.837 261.157,154.837 C256.137,154.83 252.039,153.603 248.546,151.662 C245.931,150.203 243.663,148.322 241.724,146.209 C238.816,143.046 236.666,139.352 235.284,136.006 C234.593,134.335 234.093,132.754 233.775,131.406 C233.456,130.064 233.33,128.934 233.334,128.304 C233.334,128.142 233.341,128.016 233.349,127.94 L233.358,127.866 L233.359,127.861 L232.884,127.764 L233.355,127.88 L233.359,127.861 L232.884,127.764 L233.355,127.88 C233.924,125.566 232.51,123.228 230.197,122.658 C227.883,122.088 225.545,123.502 224.975,125.816" fill="#1A1919"/>
  </g>
</svg>
